<?xml version="1.0" standalone="no"?>
<!DOCTYPE svg PUBLIC "-//W3C//DTD SVG 20010904//EN"
 "http://www.w3.org/TR/2001/REC-SVG-20010904/DTD/svg10.dtd">
<svg version="1.0" xmlns="http://www.w3.org/2000/svg"
 width="1100.000000pt" height="1100.000000pt" viewBox="0 0 1100.000000 1100.000000"
 preserveAspectRatio="xMidYMid meet">
<metadata>
Created by potrace 1.11, written by Peter Selinger 2001-2013
</metadata>
<g transform="translate(0.000000,1100.000000) scale(0.100000,-0.100000)"
fill="#000000" stroke="none">
<path d="M7568 10253 c12 -2 32 -2 45 0 12 2 2 4 -23 4 -25 0 -35 -2 -22 -4z"/>
<path d="M5658 10243 c12 -2 32 -2 45 0 12 2 2 4 -23 4 -25 0 -35 -2 -22 -4z"/>
<path d="M3748 10233 c12 -2 32 -2 45 0 12 2 2 4 -23 4 -25 0 -35 -2 -22 -4z"/>
<path d="M1838 10223 c12 -2 32 -2 45 0 12 2 2 4 -23 4 -25 0 -35 -2 -22 -4z"/>
<path d="M1655 10199 c-289 -27 -562 -215 -695 -479 -85 -168 -113 -385 -71
-550 33 -133 68 -212 134 -312 106 -157 265 -276 462 -343 66 -23 103 -28 210
-32 116 -4 141 -2 229 21 55 14 128 39 164 56 74 35 80 35 124 15 90 -41 1399
-598 1568 -667 107 -44 535 -225 950 -403 415 -178 874 -373 1020 -433 146
-61 398 -168 560 -238 l295 -128 85 0 c73 -1 92 3 136 26 97 51 114 80 296
504 91 214 198 466 236 559 39 94 129 307 201 475 72 168 136 330 143 361 21
105 -25 232 -107 295 -19 14 -118 62 -222 106 -161 70 -198 82 -258 86 -113 7
-221 -43 -274 -128 -16 -25 -133 -291 -261 -592 l-233 -547 -31 13 c-17 7
-258 110 -536 228 -278 119 -568 241 -645 273 -77 31 -486 206 -910 387 -423
182 -808 346 -855 364 -47 19 -241 100 -432 181 l-347 148 -7 39 c-11 64 -61
205 -95 265 -102 180 -260 318 -450 394 -126 50 -249 68 -384 56z m287 -432
c327 -161 355 -625 50 -827 -129 -86 -337 -94 -482 -20 -63 32 -175 147 -201
206 -88 201 -55 408 86 549 53 53 147 109 211 124 22 6 89 9 150 8 105 -2 113
-4 186 -40z"/>
<path d="M9135 10089 c-313 -31 -592 -239 -714 -534 -46 -110 -63 -196 -65
-320 -1 -136 31 -262 99 -395 l46 -87 -190 -451 c-105 -248 -246 -583 -315
-744 -68 -161 -147 -349 -174 -418 -60 -149 -218 -527 -502 -1195 -114 -269
-238 -564 -275 -655 -77 -189 -210 -508 -327 -785 -69 -161 -82 -201 -85 -260
-5 -66 -3 -74 33 -144 27 -50 52 -83 79 -103 41 -28 295 -142 665 -296 250
-104 950 -395 1057 -439 46 -19 104 -36 131 -40 100 -11 226 49 280 135 17 26
63 124 102 217 79 186 93 254 71 341 -15 59 -70 142 -113 171 -18 12 -283 126
-588 254 -305 128 -557 234 -559 236 -6 4 6 32 271 663 124 294 280 666 346
825 66 160 236 562 377 895 141 333 267 632 280 665 38 101 307 739 317 751 5
7 25 15 46 19 164 30 383 180 498 342 121 168 183 409 154 599 -28 184 -107
347 -234 481 -189 200 -446 299 -711 272z m155 -389 c288 -46 466 -334 380
-613 -86 -279 -410 -409 -679 -272 -163 82 -267 289 -241 476 31 217 181 373
393 408 72 12 74 12 147 1z"/>
<path d="M4310 9951 c-45 -14 -71 -35 -91 -73 -10 -21 -78 -172 -149 -337
-141 -325 -148 -354 -110 -417 12 -18 40 -42 63 -53 65 -31 1440 -616 1739
-740 282 -118 322 -127 378 -94 15 9 37 32 48 52 48 87 282 652 282 681 0 41
-26 95 -53 113 -26 17 -846 369 -1282 550 -165 69 -401 168 -523 221 -238 101
-263 109 -302 97z"/>
<path d="M2118 7621 c-109 -43 -139 -85 -249 -346 -62 -148 -63 -151 -64 -245
0 -81 4 -102 24 -144 36 -73 90 -119 184 -158 45 -19 301 -124 569 -234 270
-110 488 -204 488 -211 0 -7 -70 -183 -156 -390 -86 -208 -227 -553 -314 -768
-87 -214 -260 -637 -385 -940 -126 -302 -303 -737 -396 -965 -92 -228 -200
-495 -241 -594 l-74 -178 -61 -23 c-156 -56 -346 -216 -432 -362 -157 -266
-169 -544 -36 -819 137 -283 396 -459 720 -489 171 -16 414 57 560 168 222
168 341 392 352 662 9 191 -34 343 -142 505 l-47 70 273 663 c150 364 343 838
429 1052 87 215 268 658 403 985 135 327 310 757 390 955 80 198 182 450 228
560 76 185 83 205 83 270 1 90 -34 165 -103 227 -51 45 -122 76 -1191 509
-206 84 -433 176 -505 205 -112 46 -139 54 -195 53 -39 0 -84 -7 -112 -18z
m-243 -5546 c83 -22 154 -66 217 -134 259 -279 104 -732 -270 -790 -314 -49
-585 217 -542 531 26 187 163 344 341 392 72 19 181 20 254 1z"/>
<path d="M9169 6991 c-19 -11 -40 -26 -46 -33 -11 -13 -573 -1340 -713 -1683
-43 -104 -94 -228 -114 -275 -21 -50 -36 -101 -36 -125 0 -45 28 -98 62 -116
13 -7 164 -73 337 -146 344 -146 369 -152 432 -109 33 22 52 64 271 583 130
307 255 605 278 663 23 58 110 267 193 465 105 251 151 371 150 396 -1 48 -28
93 -72 117 -72 40 -637 274 -671 278 -22 3 -48 -3 -71 -15z"/>
<path d="M1813 6502 c-18 -9 -39 -27 -47 -38 -16 -22 -349 -824 -480 -1156
-47 -117 -148 -367 -225 -555 -78 -189 -141 -354 -141 -368 0 -40 25 -90 56
-112 16 -11 172 -80 347 -152 362 -149 383 -154 442 -99 29 27 58 89 171 363
75 182 214 519 309 750 198 480 373 916 386 959 12 41 -5 96 -39 129 -34 33
-649 288 -707 294 -26 2 -52 -3 -72 -15z"/>
<path d="M4154 4269 c-48 -14 -126 -71 -157 -115 -25 -36 -209 -465 -313 -732
-24 -62 -133 -325 -241 -585 -196 -470 -197 -472 -198 -547 0 -123 59 -221
165 -275 95 -48 338 -144 390 -153 133 -25 271 41 329 157 10 20 119 277 241
571 122 294 224 537 226 539 2 2 248 -98 546 -222 299 -124 696 -289 883 -366
187 -76 592 -245 900 -374 308 -129 612 -255 675 -280 115 -45 773 -317 778
-322 1 -1 14 -42 27 -91 62 -226 201 -413 393 -530 142 -87 283 -126 452 -125
335 1 660 223 787 538 47 118 65 207 64 333 0 133 -25 231 -91 365 -107 217
-287 374 -511 446 -207 67 -440 48 -639 -51 -30 -15 -62 -25 -70 -22 -8 3
-352 146 -765 317 -412 172 -815 339 -895 370 -80 32 -485 199 -900 372 -415
173 -831 346 -925 383 -93 37 -330 134 -525 215 -195 82 -383 159 -418 172
-66 24 -149 29 -208 12z m5212 -2133 c157 -42 291 -177 334 -339 8 -30 11 -84
8 -150 -4 -90 -9 -110 -38 -172 -41 -87 -132 -180 -210 -216 -86 -40 -151 -52
-260 -47 -87 4 -105 9 -174 43 -94 46 -160 115 -213 222 -35 72 -38 83 -41
182 -3 84 0 119 16 167 23 74 80 162 136 210 48 42 140 90 194 103 58 14 192
12 248 -3z"/>
<path d="M4713 2630 c-18 -10 -38 -29 -46 -42 -18 -27 -266 -619 -278 -662
-12 -41 5 -97 38 -128 24 -22 812 -359 1233 -526 69 -27 284 -116 478 -196
194 -80 366 -146 383 -146 16 0 47 9 68 19 44 23 44 23 215 433 65 156 116
291 116 309 0 40 -34 95 -68 113 -34 17 -1429 598 -1777 740 -159 64 -274 106
-295 106 -19 0 -49 -9 -67 -20z"/>
</g>
</svg>
